<svg width="38" height="53" viewBox="0 0 38 53" fill="none" xmlns="http://www.w3.org/2000/svg">
<path d="M19.512 52.872C17.8053 52.872 16.056 52.5733 14.264 51.976C12.5573 52.4027 11.064 52.616 9.784 52.616C6.79733 52.616 4.49333 51.9333 2.872 50.568C1.16533 49.1173 0.312 47.5813 0.312 45.96C0.312 43.9973 1.12267 43.016 2.744 43.016C3.68267 43.016 5.21867 43.8693 7.352 45.576C8.71733 46.6853 9.86933 47.624 10.808 48.392C11.832 49.0747 12.6853 49.5867 13.368 49.928C15.2453 48.8187 16.7813 47.0693 17.976 44.68C19.5973 41.4373 20.408 37.8107 20.408 33.8C20.408 32.3493 20.28 30.856 20.024 29.32C19.768 27.784 19.4267 26.1627 19 24.456C18.488 22.7493 17.7627 20.9573 16.824 19.08C15.8853 17.2027 14.9467 15.4107 14.008 13.704C13.1547 11.912 12.6 10.4187 12.344 9.224C11.064 12.2107 10.04 15.5813 9.272 19.336C8.504 23.0907 7.69333 26.9733 6.84 30.984C6.66933 31.6667 6.328 32.008 5.816 32.008C5.38933 32.008 5.21867 31.6667 5.304 30.984C5.56 29.704 5.90133 27.9547 6.328 25.736C6.75467 23.5173 7.224 21.1707 7.736 18.696C8.248 16.2213 8.80267 14.088 9.4 12.296C10.5093 8.79733 11.832 5.896 13.368 3.592C14.9893 1.20266 16.6107 0.00799561 18.232 0.00799561H18.616C20.4933 0.00799561 21.432 0.818663 21.432 2.44C21.432 3.72 20.7067 4.488 19.256 4.744C16.8667 5.08533 15.672 6.32266 15.672 8.456C15.672 9.90666 16.3547 11.8267 17.72 14.216C19.0853 16.52 20.4507 18.696 21.816 20.744C23.2667 22.8773 24.3333 25.0107 25.016 27.144C25.784 29.192 26.168 31.3253 26.168 33.544C26.168 42.504 22.9253 48.3067 16.44 50.952C17.464 51.208 18.4453 51.336 19.384 51.336C22.8827 51.336 25.6987 50.44 27.832 48.648C30.0507 46.7707 31.8 44.296 33.08 41.224C34.4453 38.152 35.512 34.7387 36.28 30.984C36.4507 30.3867 36.7493 30.088 37.176 30.088C37.6027 30.088 37.816 30.3867 37.816 30.984C36.7067 37.8107 34.616 43.1867 31.544 47.112C28.5573 50.952 24.5467 52.872 19.512 52.872ZM9.4 51.08C10.3387 51.08 11.1067 50.9093 11.704 50.568C10.8507 50.1413 9.95467 49.6293 9.016 49.032C8.16267 48.3493 7.18133 47.5813 6.072 46.728C4.62133 45.6187 3.512 45.064 2.744 45.064C2.40267 45.064 2.232 45.32 2.232 45.832C2.232 46.1733 2.40267 46.6427 2.744 47.24C3 47.752 3.46933 48.3493 4.152 49.032C5.51733 50.3973 7.26667 51.08 9.4 51.08Z" fill="white"/>
</svg>
